<?xml version="1.0" encoding="UTF-8"?>
<svg width="449px" height="65px" viewBox="0 0 449 65" version="1.1" xmlns="http://www.w3.org/2000/svg" xmlns:xlink="http://www.w3.org/1999/xlink">
    <!-- Generator: Sketch 46.2 (44496) - http://www.bohemiancoding.com/sketch -->
    <title>02</title>
    <desc>Created with Sketch.</desc>
    <defs></defs>
    <g id="Logotype" stroke="none" stroke-width="1" fill="none" fill-rule="evenodd">
        <g id="mailercheck-v2-black" transform="translate(-281.000000, -122.000000)">
            <g id="02" transform="translate(275.000000, 108.000000)">
                <g id="check">
                    <path d="M17.3912646,37.2785959 L39.1970023,37.2528309 L48.0340897,49.572432 C38.8078869,56.669573 33.1654887,60.747613 31.1068952,61.8065521 C29.0483017,62.8654912 26.8670037,63.5093663 24.563001,63.7381774 L17.7983679,63.7234192 C6.73974586,63.3462327 3.64074806,54.1226218 3.93525412,50.4398275 C3.83458558,45.8699702 7.29680713,37.8798529 17.3912646,37.2785959 Z" id="Rectangle" fill="#7B7B7B" transform="translate(25.975266, 50.495504) rotate(44.000000) translate(-25.975266, -50.495504) "></path>
                    <path d="M29.1371735,24.5101235 L83.9713547,24.5101235 C91.7271305,24.5726278 98.5168156,30.6893749 98.5535947,39.2276981 L98.7367722,51.0723048 L99.0186699,60.8553816 C96.6172009,54.5599414 92.4070937,51.194607 86.3883485,50.7593786 C83.2403556,50.2662872 64.3753449,49.8407431 29.7933165,49.4827463 C20.5832221,49.5287344 16.5036034,41.8651082 16.5086323,36.8962078 C16.2309064,31.9547801 20.2188598,24.3468856 29.1371735,24.5101235 Z" id="Rectangle" fill="#B3B3B3" transform="translate(57.756882, 42.681461) rotate(135.000000) translate(-57.756882, -42.681461) "></path>
                </g>
                <path d="M290.452,52.512 C290.452,61.92 297.044,68.768 306.452,68.768 C310.804,68.768 313.94,67.424 316.244,65.44 C316.884,64.928 317.332,64.032 317.332,63.136 C317.332,61.472 315.988,60.128 314.26,60.128 C313.556,60.128 312.852,60.384 312.34,60.832 C310.74,62.176 308.948,62.816 306.772,62.816 C301.14,62.816 297.428,58.528 297.428,52.512 C297.428,46.496 301.14,42.272 306.772,42.272 C308.948,42.272 310.74,42.912 312.34,44.256 C312.852,44.704 313.556,44.96 314.324,44.96 C315.988,44.96 317.332,43.616 317.332,41.952 C317.332,41.056 316.884,40.16 316.244,39.648 C313.94,37.664 310.804,36.32 306.452,36.32 C297.044,36.32 290.452,43.168 290.452,52.512 Z M348.436,68.384 C350.292,68.384 351.828,66.848 351.828,64.992 L351.828,46.112 C351.828,39.776 348.5,36.32 341.844,36.32 C336.98,36.32 332.948,38.88 330.9,41.312 L330.9,28.32 C330.9,26.464 329.364,24.928 327.572,24.928 C325.716,24.928 324.18,26.464 324.18,28.32 L324.18,64.992 C324.18,66.848 325.716,68.384 327.572,68.384 C329.364,68.384 330.9,66.848 330.9,64.992 L330.9,46.432 C332.5,44.32 335.444,42.272 338.836,42.272 C342.612,42.272 345.108,43.744 345.108,48.544 L345.108,64.992 C345.108,66.848 346.644,68.384 348.436,68.384 Z M358.612,52.512 C358.612,43.552 365.14,36.32 374.292,36.32 C383.572,36.32 389.524,43.424 389.524,51.616 C389.524,53.6 388.116,54.752 385.556,54.752 L365.652,54.752 C366.164,59.424 369.684,63.264 375.508,63.264 C377.748,63.264 380.372,62.56 382.548,61.216 C382.932,60.96 383.444,60.832 384.02,60.832 C385.492,60.832 386.708,62.048 386.708,63.52 C386.708,64.48 386.196,65.248 385.492,65.76 C382.42,67.808 378.708,68.768 374.804,68.768 C365.524,68.768 358.612,62.304 358.612,52.512 Z M374.292,41.824 C368.532,41.824 365.908,46.24 365.588,50.016 L382.996,50.016 C382.868,46.368 380.372,41.824 374.292,41.824 Z M394.26,52.512 C394.26,61.92 400.852,68.768 410.26,68.768 C414.612,68.768 417.748,67.424 420.052,65.44 C420.692,64.928 421.14,64.032 421.14,63.136 C421.14,61.472 419.796,60.128 418.068,60.128 C417.364,60.128 416.66,60.384 416.148,60.832 C414.548,62.176 412.756,62.816 410.58,62.816 C404.948,62.816 401.236,58.528 401.236,52.512 C401.236,46.496 404.948,42.272 410.58,42.272 C412.756,42.272 414.548,42.912 416.148,44.256 C416.66,44.704 417.364,44.96 418.132,44.96 C419.796,44.96 421.14,43.616 421.14,41.952 C421.14,41.056 420.692,40.16 420.052,39.648 C417.748,37.664 414.612,36.32 410.26,36.32 C400.852,36.32 394.26,43.168 394.26,52.512 Z M454.228,62.816 L444.052,51.296 L453.46,41.952 C454.036,41.376 454.356,40.544 454.356,39.84 C454.356,38.176 453.012,36.704 451.348,36.704 C450.516,36.704 449.748,36.96 449.172,37.536 L434.708,52.064 L434.708,28.32 C434.708,26.464 433.172,24.928 431.38,24.928 C429.524,24.928 427.988,26.464 427.988,28.32 L427.988,64.992 C427.988,66.848 429.524,68.384 431.316,68.384 C433.172,68.384 434.708,66.848 434.708,64.992 L434.708,59.488 L439.124,55.328 L449.172,67.296 C449.812,68.064 450.708,68.384 451.732,68.384 C453.588,68.384 454.996,66.912 454.996,64.992 C454.996,64.288 454.74,63.392 454.228,62.816 Z" id="mailer" fill="#FFFFFF"></path>
                <path d="M151.764,36.32 C147.156,36.32 143.06,39.2 141.268,42.016 C140.244,38.624 137.428,36.32 132.82,36.32 C128.148,36.32 124.052,39.456 122.772,41.312 L122.772,40.096 C122.772,38.24 121.236,36.704 119.38,36.704 C117.588,36.704 116.052,38.24 116.052,40.096 L116.052,64.992 C116.052,66.848 117.588,68.384 119.444,68.384 C121.236,68.384 122.772,66.848 122.772,64.992 L122.772,46.432 C124.18,44.384 126.932,42.272 129.876,42.272 C133.524,42.272 134.996,44.512 134.996,47.84 L134.996,64.992 C134.996,66.848 136.532,68.384 138.324,68.384 C140.18,68.384 141.716,66.848 141.716,64.992 L141.716,46.368 C143.06,44.384 145.876,42.272 148.884,42.272 C152.468,42.272 153.94,44.512 153.94,47.84 L153.94,64.992 C153.94,66.848 155.476,68.384 157.268,68.384 C159.124,68.384 160.66,66.848 160.66,64.992 L160.66,45.664 C160.66,39.392 157.46,36.32 151.764,36.32 Z M182.1,36.32 C188.948,36.32 194.964,39.2 194.964,47.52 L194.964,64.992 C194.964,66.848 193.428,68.384 191.572,68.384 C189.78,68.384 188.244,66.848 188.244,64.992 L188.244,64.672 C185.94,67.296 182.356,68.768 178.26,68.768 C173.204,68.768 167.508,65.376 167.508,58.528 C167.508,51.424 173.204,48.48 178.26,48.48 C182.42,48.48 186.004,49.824 188.244,52.448 L188.244,47.84 C188.244,44.256 185.3,42.08 181.012,42.08 C178.388,42.08 176.084,42.784 173.78,44.384 C173.396,44.64 172.82,44.832 172.244,44.832 C170.772,44.832 169.556,43.616 169.556,42.144 C169.556,41.248 170.068,40.416 170.708,39.968 C174.1,37.472 177.94,36.32 182.1,36.32 Z M180.884,64.16 C177.108,64.16 174.292,61.984 174.292,58.656 C174.292,55.264 177.108,53.088 180.884,53.088 C183.828,53.088 186.708,54.176 188.244,56.288 L188.244,60.96 C186.708,63.072 183.828,64.16 180.884,64.16 Z M206.996,31.072 C204.756,31.072 202.836,29.216 202.836,26.912 C202.836,24.608 204.756,22.752 206.996,22.752 C209.3,22.752 211.156,24.608 211.156,26.912 C211.156,29.216 209.3,31.072 206.996,31.072 Z M206.996,68.384 C205.204,68.384 203.668,66.848 203.668,64.992 L203.668,40.096 C203.668,38.24 205.204,36.704 207.06,36.704 C208.852,36.704 210.388,38.24 210.388,40.096 L210.388,64.992 C210.388,66.848 208.852,68.384 206.996,68.384 Z M222.484,68.384 C220.628,68.384 219.092,66.848 219.092,64.992 L219.092,28.32 C219.092,26.464 220.628,24.928 222.484,24.928 C224.276,24.928 225.812,26.464 225.812,28.32 L225.812,64.992 C225.812,66.848 224.276,68.384 222.484,68.384 Z M232.596,52.512 C232.596,43.552 239.124,36.32 248.276,36.32 C257.556,36.32 263.508,43.424 263.508,51.616 C263.508,53.6 262.1,54.752 259.54,54.752 L239.636,54.752 C240.148,59.424 243.668,63.264 249.492,63.264 C251.732,63.264 254.356,62.56 256.532,61.216 C256.916,60.96 257.428,60.832 258.004,60.832 C259.476,60.832 260.692,62.048 260.692,63.52 C260.692,64.48 260.18,65.248 259.476,65.76 C256.404,67.808 252.692,68.768 248.788,68.768 C239.508,68.768 232.596,62.304 232.596,52.512 Z M248.276,41.824 C254.356,41.824 256.852,46.368 256.98,50.016 L239.572,50.016 C239.892,46.24 242.516,41.824 248.276,41.824 Z M284.628,36.576 C286.548,36.576 287.38,38.048 287.38,39.712 C287.38,41.248 286.228,42.592 283.924,42.912 C281.62,43.232 278.228,44.768 276.884,46.944 L276.884,64.992 C276.884,66.848 275.348,68.384 273.556,68.384 C271.7,68.384 270.164,66.848 270.164,64.992 L270.164,40.096 C270.164,38.24 271.7,36.704 273.492,36.704 C275.348,36.704 276.884,38.24 276.884,40.096 L276.884,41.632 C278.548,39.456 280.852,37.6 282.836,36.96 C283.604,36.704 284.052,36.576 284.628,36.576 Z" id="check" fill="#FFFFFF"></path>
            </g>
        </g>
    </g>
</svg>